<?xml version="1.0" encoding="iso-8859-1"?>
<!-- Generator: Adobe Illustrator 18.1.1, SVG Export Plug-In . SVG Version: 6.00 Build 0)  -->
<svg xmlns="http://www.w3.org/2000/svg" xmlns:xlink="http://www.w3.org/1999/xlink" version="1.1" id="Capa_1" x="0px" y="0px" viewBox="0 0 179.006 179.006" style="enable-background:new 0 0 179.006 179.006;" xml:space="preserve" width="512px" height="512px">
<g>
	<path d="M62.724,67.706c-26.791,0-48.594,21.797-48.594,48.594c0,26.785,21.797,48.588,48.594,48.588   c26.785,0,48.588-21.797,48.588-48.588C111.306,89.503,89.509,67.706,62.724,67.706z M62.724,162.549   c-25.508,0-46.267-20.753-46.267-46.255c0-25.514,20.759-46.267,46.267-46.267c25.502,0,46.255,20.759,46.255,46.267   C108.979,141.797,88.226,162.549,62.724,162.549z M62.724,100.631c-8.634,0-15.663,7.029-15.663,15.663   c0,8.628,7.029,15.663,15.663,15.663s15.663-7.029,15.663-15.663C78.387,107.648,71.358,100.631,62.724,100.631z M62.724,122.661   c-3.52,0-6.373-2.858-6.373-6.361c0-3.514,2.858-6.373,6.373-6.373c3.514,0,6.367,2.858,6.367,6.373   C69.09,119.803,66.244,122.661,62.724,122.661z M176.184,24.589c1.766-2.542,2.822-5.603,2.822-8.926   C179.006,7.029,171.977,0,163.343,0c-2.858,0-5.495,0.823-7.811,2.16l-0.012-0.03L36.38,59.346l0.036,0.072   C14.947,69.389,0,91.102,0,116.282c0,34.578,28.134,62.724,62.724,62.724c24.846,0,46.303-14.559,56.441-35.568l0.084,0.036   L176.184,24.589z M162.693,31.266l-37.603,78.494c-3.061-29.393-26.493-52.819-55.886-55.844L147.728,16.2   C148.008,24.363,154.53,30.92,162.693,31.266z M169.704,15.663c0,1.528-0.561,2.912-1.45,4.01l-0.018-0.006l-0.036,0.066   c-1.169,1.39-2.9,2.297-4.857,2.297c-3.52,0-6.373-2.858-6.373-6.367s2.858-6.367,6.373-6.367S169.704,12.16,169.704,15.663z    M62.724,169.71c-29.464,0-53.421-23.969-53.421-53.427c0-29.464,23.969-53.427,53.421-53.427   c29.464,0,53.421,23.969,53.421,53.427C116.145,145.747,92.176,169.71,62.724,169.71z M57.103,85.255   c0-3.103,2.512-5.615,5.603-5.615c3.103,0,5.609,2.512,5.609,5.615s-2.512,5.609-5.609,5.609   C59.615,90.863,57.103,88.351,57.103,85.255z M68.327,148.742c0,3.103-2.518,5.615-5.603,5.615c-3.103,0-5.615-2.518-5.615-5.615   c0-3.097,2.518-5.615,5.615-5.615C65.809,143.121,68.327,145.639,68.327,148.742z M100.07,116.992c0,3.103-2.506,5.603-5.609,5.603   s-5.609-2.506-5.609-5.603s2.518-5.603,5.609-5.603C97.57,111.39,100.07,113.896,100.07,116.992z M36.589,116.992   c0,3.103-2.518,5.603-5.609,5.603c-3.103,0-5.609-2.506-5.609-5.603s2.512-5.603,5.609-5.603   C34.071,111.39,36.589,113.896,36.589,116.992z" fill="#7bae5d"/>
</g>
<g>
</g>
<g>
</g>
<g>
</g>
<g>
</g>
<g>
</g>
<g>
</g>
<g>
</g>
<g>
</g>
<g>
</g>
<g>
</g>
<g>
</g>
<g>
</g>
<g>
</g>
<g>
</g>
<g>
</g>
</svg>
