<?xml version="1.0" encoding="iso-8859-1"?>
<!-- Generator: Adobe Illustrator 16.0.0, SVG Export Plug-In . SVG Version: 6.00 Build 0)  -->
<!DOCTYPE svg PUBLIC "-//W3C//DTD SVG 1.1//EN" "http://www.w3.org/Graphics/SVG/1.1/DTD/svg11.dtd">
<svg xmlns="http://www.w3.org/2000/svg" xmlns:xlink="http://www.w3.org/1999/xlink" version="1.1" id="Capa_1" x="0px" y="0px" width="512px" height="512px" viewBox="0 0 482.771 482.772" style="enable-background:new 0 0 482.771 482.772;" xml:space="preserve">
<g>
	<g>
		<path d="M283.471,82.497c-46.531,0-86.674,27.427-105.423,66.903c-1.535,3.231-2.917,6.539-4.151,9.924    c-4.566,12.482-7.19,25.897-7.19,39.946c0,6.538,0.675,12.917,1.71,19.164c0.557,3.354,1.258,6.649,2.095,9.9    c2.273,8.823,5.475,17.271,9.632,25.15c2.324,4.414,4.938,8.651,7.793,12.706c7.799,11.099,17.46,20.768,28.55,28.567    c4.057,2.858,8.285,5.478,12.706,7.799c7.888,4.163,16.33,7.376,25.145,9.652c3.26,0.834,6.553,1.544,9.903,2.098    c6.268,1.047,12.66,1.722,19.225,1.722c14.021,0,27.412-2.607,39.877-7.159c3.431-1.258,6.771-2.652,10.041-4.208    c39.454-18.755,66.86-58.89,66.86-105.403C400.243,134.879,347.866,82.497,283.471,82.497z M316.058,299.092    c-8.429,2.762-17.337,4.402-26.543,4.929c-2.013,0.12-4.003,0.309-6.044,0.309c-6.919,0-13.666-0.715-20.214-2.001    c-3.493-0.681-6.93-1.532-10.292-2.551c-11.142-3.396-21.466-8.64-30.711-15.301c-9.249-6.668-17.36-14.781-24.024-24.039    c-6.656-9.252-11.896-19.572-15.281-30.723c-1.018-3.359-1.861-6.796-2.547-10.287c-1.275-6.536-1.984-13.263-1.984-20.159    c0-2.062,0.194-4.077,0.312-6.107c0.532-9.229,2.196-18.152,4.969-26.594c13.789-41.953,53.272-72.356,99.78-72.356    c57.935,0,105.062,47.136,105.062,105.063C388.533,245.817,358.079,285.334,316.058,299.092z" fill="#7bae5d"/>
		<path d="M283.471,122.763c-38.785,0-70.835,29.024-75.767,66.483c-0.432,3.288-0.732,6.616-0.732,10.018    c0,0.023,0,0.052,0,0.074c0.012,11.09,2.442,21.6,6.716,31.12c7.683,17.114,21.448,30.884,38.551,38.568    c9.515,4.277,20.024,6.713,31.101,6.729c0.052,0,0.092,0.006,0.126,0.006c3.391,0,6.713-0.297,9.983-0.726    c37.476-4.923,66.523-36.987,66.523-75.778C359.972,157.083,325.658,122.763,283.471,122.763z M289.245,263.766    c-1.903,0.172-3.825,0.292-5.774,0.292c-1.688,0-3.346-0.12-5.004-0.252c-31.746-2.441-57.114-27.818-59.533-59.579    c-0.123-1.644-0.251-3.285-0.251-4.957c0-1.961,0.123-3.894,0.294-5.815c2.956-33.013,30.728-58.981,64.5-58.981    c35.737,0,64.796,29.067,64.796,64.797C348.261,233.035,322.278,260.827,289.245,263.766z" fill="#7bae5d"/>
		<path d="M476.922,179.011h-35.423c-3.573-28.153-14.513-54.596-31.912-77.073l25.027-25.039    c1.104-1.092,1.716-2.588,1.716-4.14c0-1.549-0.612-3.036-1.716-4.137l-20.367-20.37c-2.293-2.29-5.992-2.29-8.28,0    l-25.021,25.019c-22.472-17.425-48.918-28.41-77.09-32.012V5.953c0-3.233-2.613-5.855-5.855-5.855h-28.796    c-3.236,0-5.855,2.622-5.855,5.855v14.035c-0.012,0.088-0.012,0.168-0.012,0.251V41.23c-28.184,3.56-54.667,14.515-77.173,31.94    l-24.928-24.919c-2.29-2.29-5.989-2.29-8.28,0l-9.286,9.309c-0.223,0.163-0.827,0.667-1.018,0.867    c-0.323,0.329-0.603,0.666-0.563,0.692l-9.503,9.503c-1.101,1.095-1.715,2.588-1.715,4.137c0,1.552,0.614,3.042,1.715,4.14    l24.902,24.91c-17.443,22.5-28.433,48.989-32.021,77.202H90.29c-3.233,0-5.855,2.621-5.855,5.855v12.909    c-0.066,0.491-0.118,0.986-0.118,1.495s0.052,1,0.118,1.101v9.375l-20.067-20.062c-1.916-1.921-5.012-1.921-6.927,0l-7.768,7.788    c-0.189,0.14-0.698,0.563-0.855,0.726c-0.271,0.269-0.506,0.555-0.475,0.58l-7.951,7.951c-0.921,0.918-1.441,2.164-1.441,3.465    s0.515,2.542,1.441,3.463l20.831,20.836c-14.595,18.826-23.79,40.995-26.792,64.6H4.995c-2.705,0-4.895,2.184-4.895,4.895v10.795    c-0.052,0.412-0.1,0.836-0.1,1.259s0.048,0.835,0.1,0.915v11.139c0,2.698,2.196,4.895,4.895,4.895h29.436    c3.002,23.598,12.197,45.761,26.798,64.585l-20.836,20.854c-0.921,0.903-1.441,2.161-1.441,3.465c0,1.292,0.515,2.539,1.441,3.465    l7.688,7.651c0.134,0.183,0.543,0.686,0.7,0.84c0.277,0.286,0.529,0.612,0.604,0.492l8.051,8.051c1.921,1.916,5.012,1.916,6.927,0    l20.856-20.854c18.818,14.575,40.975,23.753,64.571,26.731v29.511c0,2.711,2.19,4.895,4.895,4.895h24.102    c2.71,0,4.895-2.207,4.9-4.895v-29.539c23.566-3.02,45.695-12.202,64.499-26.783l20.939,20.928c1.909,1.91,4.997,1.91,6.919,0    l17.039-17.051c0.927-0.903,1.441-2.15,1.441-3.454s-0.515-2.55-1.441-3.465l-19.979-19.979h24.885    c3.248,0,5.855-2.63,5.867-5.855v-35.303c28.166-3.603,54.618-14.593,77.09-32.01l25.017,25.011c2.293,2.287,5.986,2.287,8.279,0    l20.373-20.379c1.099-1.098,1.716-2.579,1.716-4.135c0-1.561-0.617-3.047-1.716-4.14l-25.033-25.027    c17.395-22.478,28.35-48.923,31.924-77.082h35.411c3.236,0,5.855-2.613,5.855-5.855v-28.801    C482.777,181.627,480.164,179.011,476.922,179.011z M282.692,421.892l-10.115,10.099l-20.207-20.208    c-0.108-0.12-0.229-0.263-0.343-0.372c-1.796-1.789-4.66-1.921-6.599-0.314c-19.198,15.947-42.468,25.583-67.287,27.898    c-2.607,0.24-4.463,2.493-4.346,5.112c0.012,0.229,0.043,0.479,0.089,0.72v28.053h-14.292v-29.013c0-2.522-1.927-4.632-4.451-4.86    c-24.762-2.316-47.983-11.916-67.158-27.812c-1.944-1.607-4.792-1.476-6.587,0.314l-20.499,20.505l-4.826-4.814l-0.297-0.24    c-0.166-0.194-0.38-0.458-0.498-0.572l-4.486-4.488l20.482-20.481c1.784-1.802,1.918-4.655,0.297-6.6    c-15.907-19.16-25.545-42.393-27.864-67.181c-0.24-2.527-2.356-4.448-4.877-4.448H9.903l-0.011-6.633l-0.077-0.412    c0.034-0.229,0.094-0.812,0.094-1.041v-6.221h28.919c2.527,0,4.643-1.922,4.877-4.438c2.319-24.765,11.957-48.008,27.864-67.175    c1.615-1.95,1.487-4.8-0.303-6.593l-20.482-20.482l4.695-4.7c0.1-0.111,0.194-0.223,0.294-0.352    c0.186-0.166,0.432-0.363,0.543-0.475l4.586-4.586l20.493,20.488c1.784,1.792,4.644,1.927,6.587,0.317    c0.609-0.503,1.264-0.955,1.884-1.447c0.146,0.012,0.269,0.089,0.423,0.089h35.177c0.323,2.504,0.766,4.98,1.207,7.459    c-33.979,15.313-57.732,49.427-57.732,89.053c0,53.875,43.826,97.698,97.692,97.698c39.611,0,73.708-23.725,89.03-57.667    c2.55,0.446,5.1,0.897,7.685,1.229v35.28c0,0.034,0.012,0.063,0.012,0.092c-0.561,0.715-1.075,1.458-1.652,2.161    c-1.573,1.875-1.441,4.7,0.223,6.496c0.32,0.343,0.675,0.635,1.075,0.852L282.692,421.892z M132.586,329.923l9.194,9.16    c0.157,0.206,0.649,0.801,0.838,0.983c0.326,0.344,0.632,0.732,0.712,0.596l9.621,9.617c2.29,2.299,5.989,2.299,8.279,0    l24.934-24.931c8.677,6.725,17.963,12.46,27.707,17.2c-9.306,16.502-26.975,27.691-47.236,27.691    c-29.885,0-54.207-24.307-54.207-54.206c0-20.276,11.207-37.962,27.729-47.26c4.78,9.835,10.552,19.195,17.34,27.938    l-24.911,24.925c-1.101,1.092-1.715,2.579-1.715,4.14C130.871,327.339,131.485,328.814,132.586,329.923z M102.632,316.041    c0,35.291,28.702,64.007,64.002,64.007c24.23,0,45.355-13.534,56.222-33.428c7.431,3.054,15.102,5.479,22.94,7.377    c-14.197,29.493-44.294,49.941-79.163,49.941c-48.463,0-87.892-39.432-87.892-87.897c0-34.886,20.476-65.003,49.999-79.186    c1.896,7.836,4.32,15.515,7.37,22.943C116.187,270.651,102.632,291.795,102.632,316.041z M471.044,207.812h-33.656    c-3.253-0.603-6.645,1.813-6.959,5.209c-2.75,29.656-14.271,57.469-33.33,80.421c-1.87,2.253-1.721,5.626,0.269,7.776    c0.378,0.412,0.812,0.755,1.293,1.018l23.535,23.547l-12.082,12.076l-24.153-24.152c-0.12-0.16-0.274-0.326-0.406-0.458    c-2.149-2.127-5.569-2.292-7.885-0.365c-22.952,19.063-50.765,30.579-80.424,33.336c-0.32,0.022-0.577,0.183-0.863,0.251    c-2.625,0.687-4.454,3.048-4.329,5.855c0.012,0.286,0.058,0.583,0.115,0.869v7.686v25.834H279.6h-4.518v-11.711v-22.964    c0-3.019-2.299-5.54-5.312-5.82c-3.287-0.31-6.541-0.755-9.777-1.281c-3.276-0.526-6.501-1.178-9.709-1.921    c-7.794-1.796-15.416-4.163-22.784-7.188c-3.039-1.247-6.018-2.625-8.969-4.077c-10.295-5.066-20.042-11.315-29.03-18.767    c-2.324-1.933-5.732-1.772-7.876,0.366l-24.505,24.507l-5.767-5.746l-0.357-0.292c-0.197-0.24-0.458-0.549-0.598-0.681    l-5.364-5.363l24.482-24.49c2.139-2.139,2.296-5.558,0.363-7.879c-7.513-9.046-13.8-18.875-18.9-29.254    c-1.453-2.956-2.828-5.94-4.074-8.988c-3.017-7.365-5.381-14.987-7.167-22.786c-0.732-3.202-1.396-6.436-1.916-9.701    c-0.503-3.167-0.961-6.347-1.258-9.569c-0.286-3.016-2.81-5.309-5.832-5.309h-23.387H96.157l-0.005-4.803l-0.006-3.125    l-0.089-0.506c0.04-0.263,0.111-0.958,0.111-1.235v-7.437h25.188h9.375c2.699,0,4.912-1.878,5.575-4.414    c0.075-0.304,0.229-0.575,0.257-0.896c2.776-29.61,14.287-57.368,33.305-80.292c1.933-2.333,1.772-5.747-0.363-7.882    L145.023,72.73l5.609-5.615c0.117-0.134,0.229-0.269,0.346-0.42c0.234-0.194,0.52-0.435,0.654-0.569l5.481-5.481l24.493,24.493    c2.138,2.133,5.552,2.296,7.876,0.369c22.929-18.99,50.682-30.477,80.27-33.216c3.014-0.283,5.317-2.805,5.317-5.833V20.433    c0-0.083,0-0.166,0-0.246v-8.374h17.098v33.03c-0.132,0.432-0.206,0.895-0.229,1.37c-0.143,3.125,2.196,5.815,5.307,6.101    c29.653,2.748,57.466,14.275,80.418,33.333c2.321,1.944,5.832,1.698,7.96-0.438c0.137-0.14,0.257-0.283,0.377-0.429l24.113-24.112    l12.082,12.085l-23.524,23.515c-0.435,0.263-0.852,0.575-1.212,0.938c-2.139,2.141-2.299,5.555-0.36,7.882    c19.053,22.964,30.58,50.776,33.33,80.427c0.314,3.391,3.854,5.85,7.067,5.206h33.554v17.091H471.044z" fill="#7bae5d"/>
	</g>
</g>
<g>
</g>
<g>
</g>
<g>
</g>
<g>
</g>
<g>
</g>
<g>
</g>
<g>
</g>
<g>
</g>
<g>
</g>
<g>
</g>
<g>
</g>
<g>
</g>
<g>
</g>
<g>
</g>
<g>
</g>
</svg>
