<?xml version="1.0" encoding="iso-8859-1"?>
<!-- Generator: Adobe Illustrator 19.0.0, SVG Export Plug-In . SVG Version: 6.00 Build 0)  -->
<svg xmlns="http://www.w3.org/2000/svg" xmlns:xlink="http://www.w3.org/1999/xlink" version="1.1" id="Capa_1" x="0px" y="0px" viewBox="0 0 512 512" style="enable-background:new 0 0 512 512;" xml:space="preserve" width="512px" height="512px">
<g>
	<g>
		<path d="M498.846,181.515c-5.528-36.663-38.472-157.98-230.258-179.803c-52.345-5.954-103.533,3.688-148.03,27.89    c-31.084,16.907-55.917,39.02-73.809,65.726c-22.565,33.681-33.928,74.551-33.772,121.473c0.014,4.143,3.39,7.521,7.527,7.476    c4.142-0.014,7.49-3.383,7.476-7.526c-0.265-79.294,33.295-137.826,99.746-173.97c41.778-22.722,89.903-31.767,139.167-26.162    c181.185,20.616,211.992,133.137,217.119,167.134c0.039,0.256-0.026,0.485-0.193,0.679c-0.169,0.196-0.387,0.295-0.649,0.295    H350.82c-12.152,0-23.575,4.732-32.168,13.324l-54.643,54.644c-0.158,0.159-0.378,0.25-0.602,0.25h-95.673    c-19.611,0-36.954,12.5-43.157,31.106l-14.244,42.732c-0.115,0.348-0.44,0.582-0.806,0.582H47.276    c-0.377,0-0.709-0.258-0.826-0.642c-5.991-19.653-10.584-38.767-13.648-56.813c-0.694-4.084-4.565-6.834-8.652-6.139    c-4.085,0.693-6.833,4.567-6.14,8.651c3.171,18.673,7.912,38.414,14.089,58.677c2.056,6.74,8.155,11.268,15.176,11.268H58.07    l143.095,99.849l13.048,22.599c2.232,3.867,6.393,6.269,10.857,6.269h27.776c1.488,0,2.933-0.289,4.293-0.787l69.313,40.018    c1.932,1.115,4.077,1.685,6.249,1.685c1.089,0,2.185-0.143,3.265-0.433c3.234-0.866,5.938-2.941,7.613-5.841l10.395-18.005    c3.457-5.987,1.398-13.669-4.589-17.126l-71.163-41.085c-0.189-0.437-0.391-0.869-0.632-1.286l-13.888-24.054    c-0.507-0.879-1.125-1.671-1.813-2.387v-32.614c0-4.143-3.358-7.501-7.501-7.501s-7.501,3.358-7.501,7.501v27.902h-15.86V268.612    h15.86v50.409c0,4.143,3.358,7.501,7.501,7.501s7.501-3.358,7.501-7.501v-51.074h1.517c4.234,0,8.214-1.649,11.21-4.643    l54.644-54.645c5.758-5.758,13.414-8.93,21.558-8.93H483.17c4.625,0,9.006-2.009,12.021-5.513    C498.203,190.715,499.536,186.084,498.846,181.515z M124.567,331.527l14.244-42.733c4.157-12.47,15.781-20.848,28.924-20.848    h48.291v128.713h-0.001l-91.851-64.093C124.315,332.225,124.449,331.881,124.567,331.527z M202.336,424.739L84.288,342.366h25.241    c0.757,0,100.767,68.587,100.767,68.587L202.336,424.739z M275.121,445.041l64.629,37.314l-7.93,13.735l-64.63-37.314    L275.121,445.041z M251.423,412.902l12.464,21.589l-12.464,21.59h-24.93l-12.464-21.59l12.464-21.589H251.423z" fill="#FFFFFF"/>
	</g>
</g>
<g>
	<g>
		<circle cx="75.97" cy="305.12" r="8.114" fill="#FFFFFF"/>
	</g>
</g>
<g>
	<g>
		<circle cx="238.96" cy="233.02" r="8.114" fill="#FFFFFF"/>
	</g>
</g>
<g>
</g>
<g>
</g>
<g>
</g>
<g>
</g>
<g>
</g>
<g>
</g>
<g>
</g>
<g>
</g>
<g>
</g>
<g>
</g>
<g>
</g>
<g>
</g>
<g>
</g>
<g>
</g>
<g>
</g>
</svg>
