<?xml version="1.0" encoding="iso-8859-1"?>
<!-- Generator: Adobe Illustrator 17.1.0, SVG Export Plug-In . SVG Version: 6.00 Build 0)  -->
<!DOCTYPE svg PUBLIC "-//W3C//DTD SVG 1.1//EN" "http://www.w3.org/Graphics/SVG/1.1/DTD/svg11.dtd">
<svg xmlns="http://www.w3.org/2000/svg" xmlns:xlink="http://www.w3.org/1999/xlink" version="1.1" id="Capa_1" x="0px" y="0px" viewBox="0 0 490 490" style="enable-background:new 0 0 490 490;" xml:space="preserve" width="512px" height="512px">
<g>
	<path d="M123.883,273.725c-0.944-2.016-2.873-5.785-5.107-10.156c-5.74-11.223-11.732-23.104-16.671-33.957   c-0.457-1.004-1.498-1.609-2.597-1.51c-1.098,0.102-2.013,0.887-2.279,1.957c-4.643,18.643-6.485,34.426-5.798,49.668   c0.148,3.295,0.52,6.502,1.105,9.531c0.152,0.785,0.657,1.457,1.371,1.818c0.369,0.188,0.772,0.283,1.175,0.283   c0.377,0,0.748-0.094,1.102-0.246c4.28-1.846,9.683-2.697,14.796-3.311c5.273-0.631,10.188-1.299,12.394-2.531   c1.181-0.66,1.781-1.246,2.077-1.621c0.236-0.299,0.403-0.647,0.49-1.018C126.151,281.725,126.374,279.037,123.883,273.725z" fill="#7bae5d"/>
	<path d="M245.402,184.826c-0.308-0.855-1.04-1.486-1.931-1.666c-11.927-2.387-22.034-3.549-30.899-3.549   c-12.123,0-21.188,2.168-26.941,6.443c-5.028,3.734-6.355,8.191-6.993,10.334c-3.897,13.084-5.431,27.547-4.207,39.68   c1.248,12.367,4.728,17.277,5.765,18.486c0.503,0.588,1.227,0.906,1.97,0.906c2.028,0,4.912-1.887,8.198-5.305   c18.828-19.592,50.735-57.365,54.61-62.816C245.501,186.598,245.71,185.68,245.402,184.826z" fill="#7bae5d"/>
	<path d="M436.419,289.586c-1.902-7.873-7.072-13.77-14.665-18.16c-6.818-3.941-15.337-6.537-26.124-9.82   c-18.358-5.592-43.499-13.248-73.389-32.844c-5.269-3.455-10.314-6.857-14.994-10.115c-1.079-0.752-2.554-0.557-3.402,0.449   l0.009-0.01c-0.72,0.809-15.006,15.664-28.821,30.029c-18.645,19.391-37.926,39.439-39.346,41.033   c-0.535,0.602-0.754,1.422-0.591,2.211c0.163,0.787,0.689,1.453,1.42,1.793c4.861,2.26,10.74,4.359,17.476,6.244   c15.884,4.443,34.197,6.891,51.566,6.891c1.805,0,3.642-0.027,5.461-0.08c39.316-1.135,78.55-4.557,102.392-8.934   C416.734,297.662,437.457,293.877,436.419,289.586z" fill="#7bae5d"/>
	<path d="M440.212,344.151c-6.405,0-12.527,1.209-18.151,3.412l-4.785-8.065c3.002-1.266,5.769-2.654,8.287-4.166   c15.196-9.131,16.376-19.895,16.376-22.977c0-3.842-1.414-6.424-3.517-6.424c-0.281,0-0.558,0.051-0.824,0.15   c-0.019,0.006-0.039,0.014-0.058,0.021c-16.98,7.076-70.042,13.207-129.037,14.908c-1.985,0.057-4.006,0.086-6.008,0.086   c-20.013,0-40.974-2.932-59.022-8.254c-14.934-4.404-26.483-10.432-30.069-14.861c-0.591-0.73-0.808-1.854-0.318-3.084   c1.996-5.014,30.74-34.213,52.225-56.115c28.878-29.436,29.856-30.799,29.724-32.389c-0.069-0.82-0.229-2.74-13.659-13.123   c-3.939-3.045-13.362-10.15-15.797-10.354c-0.048-0.004-0.117-0.006-0.165-0.006c-1.724,0-3.314,1.744-15.469,16.965   c-13.149,16.467-33.019,41.35-53.566,60.934c-6.247,5.955-11.98,8.975-17.04,8.975c-4.147,0-7.801-2.08-10.859-6.182   c-9.954-13.352-11.227-44.346-2.961-72.098c5.145-17.271,21.054-26.029,47.283-26.029c19.305,0,39.401,4.746,50.198,7.295   c4.861,1.148,7.06,1.656,8.206,1.656c0,0,0.001,0,0.001,0c0.402,0,0.728-0.061,1.024-0.193c2.943-1.309,4.805-9.91,5.378-14.275   c0.636-4.84,1.422-16.66-4.994-21.842c-8.709-7.033-47.874-31.898-74.488-31.898c-0.936,0-1.861,0.031-2.749,0.092   c-18.688,1.285-28.853,7.848-40.623,15.445c-7.942,5.127-16.944,10.938-30.11,16.098c-13.343,5.227-21.655,14.303-24.705,26.977   c-2.489,10.342-0.92,20.666,0.476,27.531c3.304,16.244,19.395,47.707,29.009,66.506c2.566,5.018,4.593,8.98,5.696,11.332   c5.895,12.578,4.161,21.596-5.156,26.801c-4.487,2.508-11.391,3.336-17.482,4.064c-7.598,0.91-13.599,1.629-15.566,5.168   c-0.853,1.535-0.801,3.359,0.155,5.426c1.636,3.865,3.895,7.322,6.71,10.422c-33.372,4.609-86.903,24.393-102.876,90.178   c-2.116,8.715-3.447,17.147,31.508,17.813c32.574,0.621,14.893-28.814,29.979-44.594c-0.471,2.75-0.72,5.578-0.72,8.461   c0,27.498,22.291,49.789,49.789,49.789s49.789-22.291,49.789-49.789c0-6.098-1.099-11.94-3.105-17.34   c4.684,0.002,9.527,0.004,14.507,0.006c-2.005,5.398-3.103,11.238-3.103,17.334c0,27.498,22.291,49.789,49.789,49.789   c27.498,0,49.789-22.291,49.789-49.789c0-6.084-1.094-11.914-3.092-17.305c5.855,0,11.707,0.002,17.529,0.004   c-1.998,5.389-3.091,11.217-3.091,17.301c0,27.498,22.291,49.789,49.789,49.789c27.498,0,49.789-22.291,49.789-49.789   c0-6.078-1.092-11.904-3.086-17.289c5.822,0,11.355,0,16.545,0c-1.995,5.387-3.086,11.211-3.086,17.289   c0,27.498,22.292,49.789,49.789,49.789c27.498,0,49.789-22.291,49.789-49.789C490,366.441,467.709,344.151,440.212,344.151z    M111.462,406.559c-6.97,0-12.62-5.65-12.62-12.621c0-6.969,5.65-12.619,12.62-12.619c6.97,0,12.62,5.65,12.62,12.619   C124.082,400.908,118.432,406.559,111.462,406.559z M219.338,406.559c-6.97,0-12.62-5.65-12.62-12.621   c0-6.969,5.65-12.619,12.62-12.619c6.97,0,12.62,5.65,12.62,12.619C231.958,400.908,226.308,406.559,219.338,406.559z    M330.261,406.559c-6.97,0-12.62-5.65-12.62-12.621c0-6.969,5.65-12.619,12.62-12.619c6.97,0,12.62,5.65,12.62,12.619   C342.881,400.908,337.231,406.559,330.261,406.559z M440.212,406.559c-6.97,0-12.62-5.65-12.62-12.621   c0-6.969,5.65-12.619,12.62-12.619c6.97,0,12.62,5.65,12.62,12.619C452.831,400.908,447.181,406.559,440.212,406.559z" fill="#7bae5d"/>
	<path d="M241.118,83.613c-10.04-8.254-30.275-13.588-51.554-13.588c-15.167,0-29.336,2.473-40.029,7.842L135.99,48.291   c-0.397-0.867-1.135-1.531-2.039-1.836c-0.904-0.305-1.893-0.225-2.734,0.226l-15.87,8.479c-0.846,0.451-1.465,1.234-1.712,2.16   c-0.246,0.926-0.098,1.914,0.412,2.727l19.485,31.078c-9.354,12.396-9.889,26.389-9.692,28.682c0.222,2.592,2.902,2.854,5.63,1.512   c9.873-4.859,15.004-7.99,21.737-12.162c11.354-7.039,22.828-14.738,43.031-16.125c1.072-0.074,2.18-0.111,3.291-0.111   c12.433,0,27.878,4.568,45.907,13.58c1.863,0.93,3.805,1.939,5.772,2.998c0.777,0.42,1.714,0.414,2.486-0.014   c0.772-0.43,1.274-1.221,1.331-2.102C253.611,98.328,249.828,90.776,241.118,83.613z" fill="#7bae5d"/>
</g>
<g>
</g>
<g>
</g>
<g>
</g>
<g>
</g>
<g>
</g>
<g>
</g>
<g>
</g>
<g>
</g>
<g>
</g>
<g>
</g>
<g>
</g>
<g>
</g>
<g>
</g>
<g>
</g>
<g>
</g>
</svg>
