<?xml version="1.0" encoding="iso-8859-1"?>
<!-- Generator: Adobe Illustrator 19.0.0, SVG Export Plug-In . SVG Version: 6.00 Build 0)  -->
<svg version="1.1" id="Capa_1" xmlns="http://www.w3.org/2000/svg" xmlns:xlink="http://www.w3.org/1999/xlink" x="0px" y="0px"
	 viewBox="0 0 512 512" style="enable-background:new 0 0 512 512;" xml:space="preserve">
<g>
	<g>
		<path d="M442.213,157.803L296.606,12.197L275.394,33.41l124.394,124.394H112.213L236.606,33.41l-21.213-21.213L69.787,157.803H0
			v90h20.03l20.406,179.084c4.582,40.206,41.231,72.916,81.697,72.916h267.734c40.466,0,77.115-32.71,81.697-72.916l20.405-179.084
			H512v-90H442.213z M441.757,423.491c-2.861,25.104-26.624,46.313-51.89,46.313H122.133c-25.266,0-49.029-21.209-51.89-46.313
			L50.225,247.803h411.551L441.757,423.491z M482,217.803H30v-30h452V217.803z"/>
	</g>
</g>
<g>
	<g>
		<rect x="241" y="277.8" width="30" height="147.39"/>
	</g>
</g>
<g>
	<g>
		<rect x="346" y="277.8" width="30" height="147.39"/>
	</g>
</g>
<g>
	<g>
		<rect x="136" y="277.8" width="30" height="147.39"/>
	</g>
</g>
<g>
</g>
<g>
</g>
<g>
</g>
<g>
</g>
<g>
</g>
<g>
</g>
<g>
</g>
<g>
</g>
<g>
</g>
<g>
</g>
<g>
</g>
<g>
</g>
<g>
</g>
<g>
</g>
<g>
</g>
</svg>
