<?xml version="1.0" encoding="iso-8859-1"?>
<!-- Generator: Adobe Illustrator 19.0.0, SVG Export Plug-In . SVG Version: 6.00 Build 0)  -->
<svg xmlns="http://www.w3.org/2000/svg" xmlns:xlink="http://www.w3.org/1999/xlink" version="1.1" id="Capa_1" x="0px" y="0px" viewBox="0 0 512.001 512.001" style="enable-background:new 0 0 512.001 512.001;" xml:space="preserve" width="512px" height="512px">
<g>
	<g>
		<circle cx="187.26" cy="157.48" r="5.612" fill="#7bae5d"/>
	</g>
</g>
<g>
	<g>
		<circle cx="324.74" cy="157.48" r="5.612" fill="#7bae5d"/>
	</g>
</g>
<g>
	<g>
		<circle cx="187.26" cy="354.52" r="5.612" fill="#7bae5d"/>
	</g>
</g>
<g>
	<g>
		<circle cx="324.74" cy="354.52" r="5.612" fill="#7bae5d"/>
	</g>
</g>
<g>
	<g>
		<path d="M279.041,280.842l-7.84-13.578c-1.513-2.621-4.332-4.249-7.357-4.249h-15.68c-3.027,0-5.847,1.63-7.357,4.249    l-7.843,13.583c-1.509,2.617-1.509,5.87,0.003,8.492l7.837,13.574c1.513,2.624,4.332,4.253,7.36,4.253h15.68    c3.029,0,5.848-1.629,7.357-4.248l7.843-13.584C280.553,286.717,280.553,283.464,279.041,280.842z M260.083,292.155h-8.157    l-4.08-7.065l4.08-7.066h8.157l4.08,7.066L260.083,292.155z" fill="#7bae5d"/>
	</g>
</g>
<g>
	<g>
		<path d="M477.722,135.842h-50.197c-18.902,0-34.278,15.377-34.278,34.278v11.347H361.07v-20.203    c0-20.665-16.813-37.479-37.479-37.479H188.417c-20.665,0-37.479,16.813-37.479,37.479v20.203h-32.185V170.12    c0-18.901-15.377-34.278-34.278-34.278H34.278C15.377,135.842,0,151.217,0,170.12v76.968c0,18.901,15.377,34.278,34.278,34.278    h50.197c18.902,0,34.278-15.377,34.278-34.278v-11.347h32.185v114.997c0,20.665,16.813,37.479,37.479,37.479h12.052    c4.145,0,7.505-3.36,7.505-7.505s-3.359-7.505-7.505-7.505h-12.052c-12.39,0-22.469-10.08-22.469-22.469V235.741h43.873v76.694    c0,20.82,16.938,37.758,37.758,37.758h16.851c20.82,0,37.758-16.938,37.758-37.758v-76.694h43.873v114.997    c0,12.39-10.08,22.469-22.469,22.469h-71.59c-4.145,0-7.505,3.36-7.505,7.505s3.359,7.505,7.505,7.505h71.59    c20.665,0,37.479-16.813,37.479-37.479V235.741h32.177v11.347c0,18.901,15.377,34.278,34.278,34.278h50.197    c18.901,0,34.278-15.377,34.278-34.278v-76.968C512,151.217,496.623,135.842,477.722,135.842z M103.744,247.087    c0,10.625-8.644,19.269-19.269,19.269H34.278c-10.625,0-19.269-8.644-19.269-19.269V170.12c0-10.625,8.644-19.269,19.269-19.269    h50.197c10.625,0,19.269,8.644,19.269,19.269V247.087z M264.429,335.184h-16.851c-12.544,0-22.749-10.205-22.749-22.749v-76.689    h62.348v76.689h0.001C287.178,324.978,276.973,335.184,264.429,335.184z M392.935,220.741h-98.161    c-0.031,0-0.06-0.005-0.091-0.005h-77.357c-0.031,0-0.06,0.004-0.091,0.005h-98.481v-24.274H264.01c4.143,0,7.5-3.357,7.5-7.5    s-3.357-7.5-7.5-7.5h-98.062v-20.203c0-12.39,10.08-22.469,22.469-22.469h135.175c12.39,0,22.469,10.079,22.469,22.469v20.203    h-29.018c-4.143,0-7.5,3.357-7.5,7.5s3.357,7.5,7.5,7.5h75.892V220.741z M496.991,247.087c0,10.625-8.644,19.269-19.269,19.269    h-50.197c-10.625,0-19.269-8.644-19.269-19.269V170.12c0-10.625,8.644-19.269,19.269-19.269h50.197    c10.625,0,19.269,8.644,19.269,19.269V247.087z" fill="#7bae5d"/>
	</g>
</g>
<g>
</g>
<g>
</g>
<g>
</g>
<g>
</g>
<g>
</g>
<g>
</g>
<g>
</g>
<g>
</g>
<g>
</g>
<g>
</g>
<g>
</g>
<g>
</g>
<g>
</g>
<g>
</g>
<g>
</g>
</svg>
